<svg xmlns="http://www.w3.org/2000/svg" width="129" height="38" viewBox="0 0 129 38" fill="none" class="sprite sprite--badges sprite--playstore-en">
<path d="M123.761 38H4.76004C2.09442 38 0 35.91 0 33.25V4.75C0 2.09 2.09442 0 4.76004 0H123.761C126.427 0 128.521 2.09 128.521 4.75V33.25C128.521 35.91 126.427 38 123.761 38Z" fill="black"></path>
<path d="M45.1251 9.68993C45.1251 10.4499 44.9347 11.1149 44.4587 11.5899C43.8875 12.1599 43.2211 12.4449 42.3643 12.4449C41.5075 12.4449 40.8411 12.1599 40.2699 11.5899C39.6987 11.0199 39.4131 10.3549 39.4131 9.49993C39.4131 8.64493 39.6987 7.97993 40.2699 7.40993C40.8411 6.83993 41.5075 6.55493 42.3643 6.55493C42.7451 6.55493 43.1259 6.64993 43.5067 6.83993C43.8875 7.02993 44.1731 7.21993 44.3635 7.50493L43.8875 7.97993C43.5067 7.50493 43.0307 7.31493 42.3643 7.31493C41.7931 7.31493 41.2219 7.50493 40.8411 7.97993C40.3651 8.35993 40.1747 8.92993 40.1747 9.59493C40.1747 10.2599 40.3651 10.8299 40.8411 11.2099C41.3171 11.5899 41.7931 11.8749 42.3643 11.8749C43.0307 11.8749 43.5067 11.6849 43.9827 11.2099C44.2683 10.9249 44.4587 10.5449 44.4587 10.0699H42.3643V9.30993H45.1251V9.68993ZM49.5044 7.31493H46.934V9.11993H49.314V9.78493H46.934V11.5899H49.5044V12.3499H46.1723V6.64993H49.5044V7.31493ZM52.646 12.3499H51.8844V7.31493H50.266V6.64993H54.2644V7.31493H52.646V12.3499ZM57.0252 12.3499V6.64993H57.7868V12.3499H57.0252ZM61.0237 12.3499H60.2621V7.31493H58.6437V6.64993H62.5469V7.31493H60.9285V12.3499H61.0237ZM70.0678 11.5899C69.4966 12.1599 68.8302 12.4449 67.9733 12.4449C67.1165 12.4449 66.4501 12.1599 65.8789 11.5899C65.3077 11.0199 65.0221 10.3549 65.0221 9.49993C65.0221 8.64493 65.3077 7.97993 65.8789 7.40993C66.4501 6.83993 67.1165 6.55493 67.9733 6.55493C68.8302 6.55493 69.4966 6.83993 70.0678 7.40993C70.639 7.97993 70.9246 8.64493 70.9246 9.49993C70.9246 10.3549 70.639 11.0199 70.0678 11.5899ZM66.4501 11.1149C66.8309 11.4949 67.4021 11.7799 67.9733 11.7799C68.5445 11.7799 69.1158 11.5899 69.4966 11.1149C69.8774 10.7349 70.163 10.1649 70.163 9.49993C70.163 8.83493 69.9726 8.26493 69.4966 7.88493C69.1158 7.50493 68.5445 7.21993 67.9733 7.21993C67.4021 7.21993 66.8309 7.40993 66.4501 7.88493C66.0693 8.26493 65.7837 8.83493 65.7837 9.49993C65.7837 10.1649 65.9741 10.7349 66.4501 11.1149ZM71.9718 12.3499V6.64993H72.8286L75.5894 11.1149V6.64993H76.351V12.3499H75.5894L72.6382 7.69493V12.3499H71.9718Z" fill="white"></path>
<path d="M64.8317 20.7101C62.5468 20.7101 60.738 22.4201 60.738 24.7951C60.738 27.0751 62.5468 28.8801 64.8317 28.8801C67.1165 28.8801 68.9253 27.1701 68.9253 24.7951C68.9253 22.3251 67.1165 20.7101 64.8317 20.7101ZM64.8317 27.1701C63.5941 27.1701 62.5468 26.1251 62.5468 24.7001C62.5468 23.2751 63.5941 22.2301 64.8317 22.2301C66.0693 22.2301 67.1165 23.1801 67.1165 24.7001C67.1165 26.1251 66.0693 27.1701 64.8317 27.1701ZM55.978 20.7101C53.6932 20.7101 51.8844 22.4201 51.8844 24.7951C51.8844 27.0751 53.6932 28.8801 55.978 28.8801C58.2628 28.8801 60.0716 27.1701 60.0716 24.7951C60.0716 22.3251 58.2628 20.7101 55.978 20.7101ZM55.978 27.1701C54.7404 27.1701 53.6932 26.1251 53.6932 24.7001C53.6932 23.2751 54.7404 22.2301 55.978 22.2301C57.2156 22.2301 58.2628 23.1801 58.2628 24.7001C58.2628 26.1251 57.2156 27.1701 55.978 27.1701ZM45.4107 21.9451V23.6551H49.5043C49.4091 24.6051 49.0283 25.3651 48.5523 25.8401C47.9811 26.4101 47.0291 27.0751 45.4107 27.0751C42.8403 27.0751 40.9363 25.0801 40.9363 22.5151C40.9363 19.9501 42.9355 17.9551 45.4107 17.9551C46.7435 17.9551 47.7907 18.5251 48.5523 19.1901L49.7899 17.9551C48.7427 17.0051 47.4099 16.2451 45.5059 16.2451C42.0787 16.2451 39.1274 19.0951 39.1274 22.5151C39.1274 25.9351 42.0787 28.7851 45.5059 28.7851C47.4099 28.7851 48.7427 28.2151 49.8851 26.9801C51.0275 25.8401 51.4084 24.2251 51.4084 22.9901C51.4084 22.6101 51.4084 22.2301 51.3132 21.9451H45.4107ZM88.6319 23.2751C88.2511 22.3251 87.2991 20.7101 85.2047 20.7101C83.1102 20.7101 81.3966 22.3251 81.3966 24.7951C81.3966 27.0751 83.1102 28.8801 85.3951 28.8801C87.2039 28.8801 88.3463 27.7401 88.7271 27.0751L87.3943 26.1251C86.9183 26.7901 86.3471 27.2651 85.3951 27.2651C84.443 27.2651 83.8718 26.8851 83.3958 26.0301L88.8223 23.7501L88.6319 23.2751ZM83.1102 24.6051C83.1102 23.0851 84.3478 22.2301 85.2047 22.2301C85.8711 22.2301 86.5375 22.6101 86.7279 23.0851L83.1102 24.6051ZM78.6358 28.5001H80.4446V16.6251H78.6358V28.5001ZM75.7798 21.5651C75.3038 21.0901 74.5422 20.6151 73.5901 20.6151C71.5909 20.6151 69.6869 22.4201 69.6869 24.7001C69.6869 26.9801 71.4957 28.6901 73.5901 28.6901C74.5422 28.6901 75.3038 28.2151 75.6846 27.7401H75.7798V28.3101C75.7798 29.8301 74.923 30.6851 73.5901 30.6851C72.5429 30.6851 71.7813 29.9251 71.5909 29.2601L70.0677 29.9251C70.5437 30.9701 71.6861 32.3001 73.6853 32.3001C75.7798 32.3001 77.4934 31.0651 77.4934 28.1201V20.9001H75.7798V21.5651ZM73.6853 27.1701C72.4477 27.1701 71.4005 26.1251 71.4005 24.7001C71.4005 23.2751 72.4477 22.2301 73.6853 22.2301C74.923 22.2301 75.875 23.2751 75.875 24.7001C75.875 26.1251 74.923 27.1701 73.6853 27.1701ZM96.9144 16.6251H92.6303V28.5001H94.4391V24.0351H96.9144C98.9136 24.0351 100.818 22.6101 100.818 20.3301C100.818 18.0501 98.9136 16.6251 96.9144 16.6251ZM97.0096 22.3251H94.4391V18.2401H97.0096C98.3424 18.2401 99.104 19.3801 99.104 20.2351C99.0088 21.2801 98.2472 22.3251 97.0096 22.3251ZM107.958 20.6151C106.625 20.6151 105.292 21.1851 104.816 22.4201L106.434 23.0851C106.815 22.4201 107.386 22.2301 108.053 22.2301C109.005 22.2301 109.862 22.8001 109.957 23.7501V23.8451C109.671 23.6551 108.91 23.3701 108.148 23.3701C106.434 23.3701 104.721 24.3201 104.721 26.0301C104.721 27.6451 106.149 28.6901 107.672 28.6901C108.91 28.6901 109.481 28.1201 109.957 27.5501H110.052V28.5001H111.766V23.9401C111.575 21.8501 109.957 20.6151 107.958 20.6151ZM107.767 27.1701C107.196 27.1701 106.339 26.8851 106.339 26.1251C106.339 25.1751 107.386 24.8901 108.243 24.8901C109.005 24.8901 109.386 25.0801 109.862 25.2701C109.671 26.4101 108.719 27.1701 107.767 27.1701ZM117.763 20.9001L115.764 26.0301H115.669L113.575 20.9001H111.67L114.812 28.1201L113.003 32.1101H114.812L119.667 20.9001H117.763ZM101.77 28.5001H103.578V16.6251H101.77V28.5001Z" fill="white"></path>
<path d="M9.90082 7.125C9.61522 7.41 9.52002 7.885 9.52002 8.455V29.45C9.52002 30.02 9.71042 30.495 9.99602 30.78L10.0912 30.875L21.8961 19.095V18.905L9.90082 7.125Z" fill="url(#paint0_linear)"></path>
<path d="M25.7043 23.085L21.801 19.19V18.905L25.7043 15.01L25.7995 15.105L30.4643 17.765C31.7971 18.525 31.7971 19.76 30.4643 20.52L25.7043 23.085Z" fill="url(#paint1_linear)"></path>
<path d="M25.7994 22.99L21.801 19L9.90088 30.875C10.3769 31.35 11.0433 31.35 11.9001 30.97L25.7994 22.99Z" fill="url(#paint2_linear)"></path>
<path d="M25.7994 15.01L11.9001 7.12503C11.0433 6.65003 10.3769 6.74503 9.90088 7.22003L21.801 19L25.7994 15.01Z" fill="url(#paint3_linear)"></path>
<path opacity="0.2" d="M25.7042 22.895L11.9001 30.685C11.1385 31.16 10.4721 31.065 9.99608 30.685L9.90088 30.78L9.99608 30.875C10.4721 31.255 11.1385 31.35 11.9001 30.875L25.7042 22.895Z" fill="black"></path>
<path opacity="0.2" d="M9.90082 30.685C9.61522 30.4 9.52002 29.925 9.52002 29.355V29.45C9.52002 30.02 9.71042 30.495 9.99602 30.78V30.685H9.90082ZM30.4642 20.235L25.7042 22.895L25.7994 22.99L30.4642 20.33C31.1306 19.95 31.4162 19.475 31.4162 19C31.4162 19.475 31.0354 19.855 30.4642 20.235Z" fill="black"></path>
<path opacity="0.2" d="M11.9 7.21996L30.4642 17.765C31.0354 18.145 31.4162 18.525 31.4162 19C31.4162 18.525 31.1306 18.05 30.4642 17.67L11.9 7.12496C10.5672 6.36496 9.52002 6.93496 9.52002 8.45496V8.54996C9.52002 7.12496 10.5672 6.45996 11.9 7.21996Z" fill="white"></path>
<defs>
<linearGradient id="paint0_linear" x1="20.7537" y1="8.2745" x2="4.8099" y2="24.2511" gradientUnits="userSpaceOnUse">
<stop stop-color="#00A0FF"></stop>
<stop offset="0.007" stop-color="#00A1FF"></stop>
<stop offset="0.26" stop-color="#00BEFF"></stop>
<stop offset="0.512" stop-color="#00D2FF"></stop>
<stop offset="0.76" stop-color="#00DFFF"></stop>
<stop offset="1" stop-color="#00E3FF"></stop>
</linearGradient>
<linearGradient id="paint1_linear" x1="32.2103" y1="19.001" x2="9.17454" y2="19.001" gradientUnits="userSpaceOnUse">
<stop stop-color="#FFE000"></stop>
<stop offset="0.409" stop-color="#FFBD00"></stop>
<stop offset="0.775" stop-color="#FFA500"></stop>
<stop offset="1" stop-color="#FF9C00"></stop>
</linearGradient>
<linearGradient id="paint2_linear" x1="23.6355" y1="21.1812" x2="2.01545" y2="42.847" gradientUnits="userSpaceOnUse">
<stop stop-color="#FF3A44"></stop>
<stop offset="1" stop-color="#C31162"></stop>
</linearGradient>
<linearGradient id="paint3_linear" x1="6.9468" y1="0.167234" x2="16.6016" y2="9.84247" gradientUnits="userSpaceOnUse">
<stop stop-color="#32A071"></stop>
<stop offset="0.069" stop-color="#2DA771"></stop>
<stop offset="0.476" stop-color="#15CF74"></stop>
<stop offset="0.801" stop-color="#06E775"></stop>
<stop offset="1" stop-color="#00F076"></stop>
</linearGradient>
</defs>
</svg>