<svg width="96" height="72" viewBox="0 0 96 72" fill="none" xmlns="http://www.w3.org/2000/svg">
<path id="Combined Shape" opacity="0.4" fill-rule="evenodd" clip-rule="evenodd" d="M77.984 1.28977C81.6396 2.36662 85.0333 4.18839 87.9521 6.64069C91.4376 9.49292 93.9782 13.3351 95.2394 17.6611C95.7465 19.4584 96.0024 21.3172 96 23.1848C95.9678 27.3934 94.6502 31.4914 92.2242 34.9287C91.1224 36.4463 89.8719 37.8499 88.4915 39.1188C84.5261 42.9582 80.2721 46.4873 75.767 49.6748C73.7375 51.1992 71.5535 52.5058 69.2511 53.5733C68.7316 53.7813 68.1879 53.9228 67.6329 53.9944C67.4432 54.0188 67.252 53.9626 67.1055 53.8396C66.959 53.7165 66.8705 53.5377 66.8615 53.3465C66.7661 52.6781 66.8028 51.9975 66.9694 51.3433C67.0033 51.067 67.0462 50.7907 67.0891 50.5143C67.1829 49.9101 67.2769 49.3051 67.2769 48.6975C67.3585 48.0212 67.1565 47.3413 66.7191 46.8195C66.2816 46.2977 65.6477 45.9807 64.9682 45.9438C59.2775 45.2911 53.9207 42.9179 49.6115 39.1404C46.1675 36.2074 43.7346 32.2625 42.6586 27.8662C41.3299 22.5741 42.2351 16.9679 45.1615 12.3642C47.401 8.76011 50.5388 5.80143 54.2665 3.77895C57.0377 2.20131 60.0563 1.10586 63.1936 0.539236C64.6738 0.293178 66.1668 0.130934 67.6652 0.05328C68.8077 -0.01776 69.9534 -0.01776 71.0958 0.05328C73.4327 0.19091 75.745 0.605982 77.984 1.28977ZM12.0107 36.8598C9.57359 37.5777 7.3111 38.7923 5.36525 40.4271C3.04162 42.3286 1.34785 44.89 0.50705 47.7741C0.169017 48.9722 -0.00161756 50.2115 1.15555e-05 51.4565C0.0214706 54.2623 0.899841 56.9943 2.51722 59.2858C3.25174 60.2975 4.08535 61.2333 5.00565 62.0792C7.64925 64.6388 10.4852 66.9915 13.4886 69.1165C14.8417 70.1328 16.2977 71.0039 17.8326 71.7155C18.179 71.8542 18.5414 71.9485 18.9114 71.9963C19.0379 72.0125 19.1653 71.9751 19.263 71.893C19.3607 71.811 19.4196 71.6918 19.4256 71.5643C19.4892 71.1188 19.4648 70.665 19.3537 70.2289C19.3311 70.0447 19.3025 69.8605 19.2739 69.6762C19.2114 69.2734 19.1487 68.87 19.1487 68.465C19.0943 68.0142 19.229 67.5609 19.5206 67.213C19.8122 66.8652 20.2348 66.6538 20.6878 66.6292C24.4816 66.1941 28.0529 64.6119 30.9256 62.0936C33.2216 60.1383 34.8436 57.5083 35.5609 54.5775C36.4467 51.0494 35.8433 47.3119 33.8923 44.2428C32.3993 41.8401 30.3075 39.8676 27.8223 38.5193C25.9748 37.4675 23.9625 36.7372 21.8709 36.3595C20.8841 36.1955 19.8888 36.0873 18.8898 36.0355C18.1282 35.9882 17.3644 35.9882 16.6028 36.0355C15.0449 36.1273 13.5033 36.404 12.0107 36.8598Z" fill="white"/>
</svg>
