<svg width="64" height="64" viewBox="0 0 64 64" fill="none" xmlns="http://www.w3.org/2000/svg">
<path id="Combined Shape" opacity="0.4" fill-rule="evenodd" clip-rule="evenodd" d="M63.9222 45.1575V3.82096C63.9222 3.75283 63.9224 3.68469 63.9226 3.61661C63.9264 2.51341 63.9301 1.42737 62.9435 0.636575C62.1451 -0.00245208 61.2985 -0.000797171 60.3709 0.00101594L60.2215 0.00121022H3.10566C3.0722 0.00121022 3.03844 0.00091092 3.00449 0.000610007C2.86779 -0.000601809 2.72813 -0.00183982 2.59338 0.016338C1.13299 0.167615 0.0854822 1.32489 0.0778361 2.77715C0.0727388 3.28645 0.0744379 3.79575 0.076137 4.30505L0.076137 4.30506C0.0769866 4.55971 0.0778361 4.81435 0.0778361 5.069V45.808C0.0778361 46.7989 0.506014 47.7141 1.37001 48.2587C1.86701 48.5688 2.43281 48.6596 3.00626 48.6596H61.2002H61.269H61.2766H61.2996C62.7829 48.5613 63.8992 47.3964 63.9145 45.9063C63.9222 45.6567 63.9222 45.4071 63.9222 45.1575ZM40.2883 25.3477C40.0895 25.6805 39.7913 25.915 39.4778 26.1268C39.3338 26.2255 39.1891 26.3241 39.0442 26.4229L39.044 26.4231C38.6888 26.6652 38.3321 26.9084 37.9792 27.1555L37.9776 27.1566C34.568 29.4859 31.1584 31.8152 27.7488 34.1521C27.6915 34.1899 27.6361 34.2296 27.5807 34.2693L27.5806 34.2693C27.5252 34.309 27.4697 34.3487 27.4124 34.3866C26.6325 34.8707 25.5468 34.7874 24.8892 34.1218C24.3004 33.5243 24.2852 32.836 24.2852 32.0796V16.0896V15.9912C24.2852 15.908 24.2928 15.8324 24.3081 15.7643V15.7568C24.484 14.6222 25.5009 13.8128 26.7013 14.0246C27.1581 14.1074 27.5336 14.3721 27.9054 14.6343L27.9056 14.6344C27.9756 14.6838 28.0455 14.7331 28.1158 14.781L30.272 16.256C31.2469 16.9216 32.2218 17.5892 33.1967 18.2567C34.1716 18.9242 35.1464 19.5917 36.1212 20.2573C36.5542 20.5551 36.9903 20.8497 37.4265 21.1443C38.1535 21.6354 38.8805 22.1265 39.5925 22.6323C40.4794 23.2525 40.8617 24.3796 40.2883 25.3477ZM62.4694 57.5925C63.3258 57.5925 63.9604 58.2884 63.9986 59.1053C64.0368 59.9222 63.2723 60.6181 62.4618 60.6105H62.3853C61.2081 60.6357 60.0275 60.6273 58.8458 60.6189C58.2545 60.6147 57.6629 60.6105 57.0713 60.6105H19.8199C19.2694 62.2519 17.8778 63.5982 16.0963 63.9159C14.0318 64.2865 11.9292 63.4167 10.8358 61.6089C10.6446 61.2912 10.4917 60.9509 10.3847 60.6105H1.53058C0.674226 60.6105 0.039606 59.9146 0.00137586 59.0977C-0.0368543 58.2808 0.727749 57.585 1.53058 57.585H10.4C10.5988 56.9874 10.9123 56.4201 11.3251 55.9133C12.602 54.3779 14.9035 53.7728 16.7844 54.4762C18.2524 55.0208 19.3458 56.1705 19.8199 57.5774C20.7244 57.5683 21.6289 57.5756 22.5318 57.5829C23.1324 57.5877 23.7323 57.5925 24.331 57.5925H62.4694Z" fill="white"/>
</svg>
