<svg width="74" height="64" viewBox="0 0 74 64" fill="none" xmlns="http://www.w3.org/2000/svg">
<path id="Combined Shape" opacity="0.4" fill-rule="evenodd" clip-rule="evenodd" d="M63.8592 5.22765H30.4834C30.1288 5.22765 29.7742 5.1039 29.4967 4.87186L24.7485 1.0517C23.9315 0.371179 22.8832 0 21.8194 0H10.1649C7.5904 0 5.49383 2.10341 5.49383 4.68627V13.7342H68.5304V9.91393C68.5304 7.33106 66.4337 5.22765 63.8592 5.22765ZM38.1691 29H35.8309C34.546 29 33.5 30.0334 33.5 31.3028V35.75H40.5V31.3028C40.5 30.0334 39.454 29 38.1691 29ZM72.8777 18.4669C71.9836 17.4152 70.6886 16.8275 69.3319 16.8275H4.67673C3.30477 16.8275 2.00977 17.4152 1.11561 18.4669C0.236882 19.5031 -0.14852 20.8797 0.0518966 22.2407L6.01793 60.0406C6.37256 62.3296 8.31501 64 10.6274 64H63.3813C65.6937 64 67.6208 62.3296 67.9907 60.0406L73.9413 22.2407C74.1572 20.8797 73.7718 19.5031 72.8777 18.4669ZM48.7977 51.6114C48.7977 54.1634 46.7165 56.2513 44.1728 56.2513H29.8358C27.2768 56.2513 25.211 54.1634 25.211 51.6114V38.274C25.211 36.8364 26.2116 35.7274 27.7526 35.7274H28.6245V30.7578C28.6245 27.3458 31.3901 24.5712 34.7909 24.5712H39.2065C42.6074 24.5712 45.373 27.3458 45.373 30.7578V35.7274H46.256C48.0479 35.7274 48.7977 36.5133 48.7977 38.274V51.6114Z" fill="white"/>
</svg>
