<svg width="118" height="38" viewBox="0 0 118 38" fill="none" xmlns="http://www.w3.org/2000/svg">
<path id="Shape" opacity="0.4" fill-rule="evenodd" clip-rule="evenodd" d="M19.0882 38C8.54609 38 0 29.4934 0 19C0 8.50659 8.54609 0 19.0882 0C29.6304 0 38.1765 8.50659 38.1765 19C38.1765 29.4934 29.6304 38 19.0882 38ZM18.3155 13.8812C18.0305 13.692 17.6955 13.5911 17.3529 13.5911C16.3946 13.5911 15.6176 14.3644 15.6176 15.3183V22.6817C15.6176 23.0227 15.7191 23.356 15.9091 23.6398C16.4407 24.4335 17.5181 24.648 18.3155 24.1188L23.8636 20.4372C24.0543 20.3107 24.2178 20.1479 24.3449 19.9581C24.8765 19.1644 24.6611 18.092 23.8636 17.5628L18.3155 13.8812ZM52.0588 8.63636C50.1421 8.63636 48.5882 10.183 48.5882 12.0909V25.9091C48.5882 27.817 50.1421 29.3636 52.0588 29.3636C53.9756 29.3636 55.5294 27.817 55.5294 25.9091V12.0909C55.5294 10.183 53.9756 8.63636 52.0588 8.63636ZM64.2059 3.45455C64.2059 1.54665 65.7597 0 67.6765 0C69.5932 0 71.1471 1.54665 71.1471 3.45455V34.5455C71.1471 36.4533 69.5932 38 67.6765 38C65.7597 38 64.2059 36.4533 64.2059 34.5455V3.45455ZM83.2941 8.63636C81.3774 8.63636 79.8235 10.183 79.8235 12.0909V25.9091C79.8235 27.817 81.3774 29.3636 83.2941 29.3636C85.2109 29.3636 86.7647 27.817 86.7647 25.9091V12.0909C86.7647 10.183 85.2109 8.63636 83.2941 8.63636ZM111.059 12.0909C111.059 10.183 112.613 8.63636 114.529 8.63636C116.446 8.63636 118 10.183 118 12.0909V25.9091C118 27.817 116.446 29.3636 114.529 29.3636C112.613 29.3636 111.059 27.817 111.059 25.9091V12.0909ZM98.9118 0C96.995 0 95.4412 1.54665 95.4412 3.45455V34.5455C95.4412 36.4533 96.995 38 98.9118 38C100.829 38 102.382 36.4533 102.382 34.5455V3.45455C102.382 1.54665 100.829 0 98.9118 0Z" fill="white"/>
</svg>
