<svg xmlns="http://www.w3.org/2000/svg" width="133" height="38" viewBox="0 0 133 38" fill="none" class="sprite sprite--badges sprite--appstore-en">
<path d="M132.417 34.1908C132.417 36.2953 130.713 38 128.604 38H3.8181C1.71064 38 0 36.2953 0 34.1908V3.81412C0 1.71064 1.71064 0 3.8181 0H128.603C130.713 0 132.416 1.71064 132.416 3.81412L132.417 34.1908Z" fill="black"></path>
<path d="M29.0786 18.791C29.0498 15.5855 31.7033 14.026 31.8246 13.9534C30.3218 11.7624 27.9926 11.4631 27.1741 11.4392C25.2178 11.2333 23.3202 12.6098 22.3236 12.6098C21.3072 12.6098 19.7726 11.4591 18.1186 11.4929C15.9903 11.5257 13.9992 12.758 12.9072 14.6715C10.6535 18.5732 12.3343 24.3068 14.4935 27.4605C15.5736 29.0051 16.8356 30.7296 18.4876 30.6689C20.1038 30.6023 20.7075 29.6386 22.6578 29.6386C24.5902 29.6386 25.1571 30.6689 26.8419 30.6302C28.5764 30.6023 29.6684 29.0786 30.7107 27.5202C31.9589 25.7499 32.4601 24.0064 32.48 23.9169C32.4392 23.903 29.1115 22.6329 29.0786 18.791Z" fill="white"></path>
<path d="M25.896 9.36459C26.7652 8.27754 27.36 6.79864 27.1949 5.29785C25.9368 5.35355 24.3634 6.16809 23.4574 7.23127C22.6557 8.16814 21.9397 9.70373 22.1246 11.1478C23.5379 11.2533 24.989 10.4347 25.896 9.36459Z" fill="white"></path>
<path fill-rule="evenodd" clip-rule="evenodd" d="M50.2579 30.5209H52.5289L48.2239 17.2129H45.5779L41.2939 30.5209H43.5049L44.6899 26.6119H49.0139L50.2579 30.5209ZM47.4934 21.4864L48.6184 24.9614H45.0454L46.1504 21.4864C46.4404 20.3814 46.6514 19.5454 46.7824 18.9794H46.8224C47.1514 20.2954 47.3744 21.1314 47.4934 21.4864Z" fill="white"></path>
<path fill-rule="evenodd" clip-rule="evenodd" d="M62.1521 29.4538C63.0341 28.5068 63.4751 27.2168 63.4751 25.5848C63.4751 24.1238 63.0971 22.9458 62.3391 22.0498C61.5831 21.1548 60.6381 20.7078 59.5061 20.7078C58.0581 20.7078 56.9791 21.2798 56.2681 22.4258H56.2281L56.1091 20.9048H54.2341C54.2861 21.9848 54.3131 23.0378 54.3131 24.0638V34.4108H56.4451V29.3558H56.4851C57.0381 30.2638 57.9461 30.7178 59.2101 30.7178C60.3811 30.7178 61.3621 30.2968 62.1521 29.4538ZM60.659 23.3435C61.081 23.9495 61.291 24.7195 61.291 25.6535C61.291 26.6675 61.067 27.4835 60.619 28.1025C60.172 28.7205 59.547 29.0305 58.744 29.0305C58.06 29.0305 57.504 28.7905 57.076 28.3095C56.648 27.8285 56.434 27.2395 56.434 26.5415V24.9415C56.434 24.7715 56.467 24.5555 56.533 24.2915C56.664 23.7255 56.944 23.2685 57.372 22.9185C57.799 22.5715 58.277 22.3955 58.803 22.3955C59.579 22.3955 60.198 22.7115 60.659 23.3435Z" fill="white"></path>
<path fill-rule="evenodd" clip-rule="evenodd" d="M73.1282 29.4538C74.0112 28.5068 74.4522 27.2168 74.4522 25.5848C74.4522 24.1238 74.0732 22.9458 73.3182 22.0498C72.5602 21.1548 71.6152 20.7078 70.4842 20.7078C69.0352 20.7078 67.9562 21.2798 67.2462 22.4258H67.2062L67.0872 20.9048H65.2122C65.2642 21.9848 65.2912 23.0378 65.2912 24.0638V34.4108H67.4232V29.3558H67.4632C68.0152 30.2638 68.9232 30.7178 70.1872 30.7178C71.3582 30.7178 72.3392 30.2968 73.1282 29.4538ZM71.635 23.3435C72.057 23.9495 72.268 24.7195 72.268 25.6535C72.268 26.6675 72.044 27.4835 71.596 28.1025C71.149 28.7205 70.524 29.0305 69.721 29.0305C69.035 29.0305 68.479 28.7895 68.051 28.3095C67.625 27.8285 67.411 27.2395 67.411 26.5415V24.9415C67.411 24.7715 67.445 24.5555 67.51 24.2915C67.641 23.7255 67.92 23.2685 68.348 22.9185C68.776 22.5715 69.253 22.3955 69.78 22.3955C70.557 22.3955 71.174 22.7115 71.635 23.3435Z" fill="white"></path>
<path d="M86.6747 26.7359C86.6747 27.8617 86.2838 28.7777 85.4991 29.4848C84.6368 30.2576 83.4364 30.6435 81.8938 30.6435C80.4696 30.6435 79.3279 30.369 78.4636 29.819L78.9549 28.0517C79.8858 28.6146 80.9072 28.897 82.0202 28.897C82.8188 28.897 83.4404 28.716 83.8869 28.356C84.3315 27.996 84.5533 27.5126 84.5533 26.9099C84.5533 26.3729 84.3703 25.9203 84.0033 25.5533C83.6383 25.1864 83.0286 24.8452 82.1773 24.5299C79.86 23.6657 78.7023 22.3996 78.7023 20.7347C78.7023 19.6467 79.1081 18.7546 79.9206 18.0604C80.7302 17.3652 81.8103 17.0181 83.1609 17.0181C84.3653 17.0181 85.3658 17.2279 86.1645 17.6466L85.6344 19.3752C84.8885 18.9694 84.0451 18.7665 83.1012 18.7665C82.3553 18.7665 81.7725 18.9505 81.3548 19.3165C81.0017 19.6437 80.8247 20.0425 80.8247 20.5149C80.8247 21.0381 81.0266 21.4707 81.4324 21.8108C81.7854 22.1251 82.4269 22.4653 83.3578 22.8322C84.4966 23.2907 85.333 23.8268 85.8711 24.4414C86.4071 25.0541 86.6747 25.8209 86.6747 26.7359Z" fill="white"></path>
<path d="M93.6852 22.4952H91.348V27.1288C91.348 28.3073 91.7598 28.8961 92.5853 28.8961C92.9642 28.8961 93.2785 28.8633 93.5271 28.7977L93.5858 30.4078C93.1681 30.564 92.6181 30.6426 91.9368 30.6426C91.0994 30.6426 90.445 30.387 89.9726 29.8767C89.5021 29.3655 89.2654 28.5082 89.2654 27.3038V22.4932H87.873V20.9019H89.2654V19.1544L91.348 18.5259V20.9019H93.6852V22.4952Z" fill="white"></path>
<path fill-rule="evenodd" clip-rule="evenodd" d="M103.018 29.2567C103.86 28.3097 104.282 27.0987 104.282 25.6237C104.282 24.1887 103.874 23.0177 103.056 22.1107C102.201 21.1757 101.068 20.7087 99.6598 20.7087C98.1988 20.7087 97.0368 21.1827 96.1758 22.1307C95.3128 23.0777 94.8828 24.2957 94.8828 25.7827C94.8828 27.2037 95.3008 28.3827 96.1368 29.3167C96.9728 30.2507 98.0938 30.7177 99.5018 30.7177C100.963 30.7177 102.135 30.2317 103.018 29.2567ZM101.486 23.4073C101.869 24.0403 102.058 24.7993 102.058 25.6843C102.058 26.5683 101.86 27.3353 101.467 27.9803C101.006 28.7583 100.367 29.1483 99.553 29.1483C98.722 29.1483 98.078 28.7663 97.617 28.0003C97.234 27.3683 97.045 26.6093 97.045 25.7243C97.045 24.8123 97.234 24.0413 97.617 23.4073C98.064 22.6423 98.715 22.2593 99.572 22.2593C100.4 22.2593 101.039 22.6413 101.486 23.4073Z" fill="white"></path>
<path d="M111.123 22.7685C110.913 22.7297 110.689 22.7098 110.454 22.7098C109.708 22.7098 109.132 22.9913 108.726 23.5552C108.373 24.0525 108.196 24.681 108.196 25.4399V30.4475H106.076L106.096 23.9092C106.096 22.8093 106.069 21.8077 106.017 20.9047H107.863L107.941 22.7307H108C108.224 22.1031 108.577 21.5979 109.06 21.219C109.532 20.8778 110.043 20.7078 110.593 20.7078C110.788 20.7078 110.966 20.7217 111.123 20.7466V22.7685Z" fill="white"></path>
<path fill-rule="evenodd" clip-rule="evenodd" d="M120.574 26.2162C120.627 25.9532 120.652 25.6312 120.652 25.2492C120.652 24.0522 120.369 23.0442 119.806 22.2292C119.095 21.2032 118.048 20.6902 116.665 20.6902C115.257 20.6902 114.138 21.2032 113.31 22.2292C112.519 23.1902 112.124 24.3952 112.124 25.8422C112.124 27.3162 112.549 28.4912 113.397 29.3662C114.247 30.2412 115.415 30.6792 116.903 30.6792C118.14 30.6792 119.212 30.4822 120.12 30.0862L119.786 28.6062C119.009 28.9092 118.145 29.0602 117.198 29.0602C116.342 29.0602 115.645 28.8362 115.106 28.3892C114.512 27.8892 114.203 27.1642 114.178 26.2162H120.574ZM118.194 23.0492C118.483 23.5102 118.622 24.0562 118.608 24.6882V24.6872H114.167C114.232 24.0432 114.443 23.4902 114.798 23.0292C115.231 22.4492 115.798 22.1602 116.495 22.1602C117.258 22.1602 117.825 22.4562 118.194 23.0492Z" fill="white"></path>
<path fill-rule="evenodd" clip-rule="evenodd" d="M46.869 11.7446C47.574 11.1496 47.927 10.2636 47.927 9.08658C47.927 8.03858 47.6 7.23358 46.948 6.67058C46.366 6.17258 45.503 5.92358 44.358 5.92358C43.71 5.92358 43.11 5.96958 42.553 6.05958V12.4906C42.98 12.5426 43.49 12.5686 44.086 12.5686C45.288 12.5686 46.216 12.2936 46.869 11.7446ZM46.2104 7.35508C46.6144 7.76308 46.8164 8.34808 46.8164 9.11108C46.8164 9.96508 46.5964 10.6151 46.1604 11.0611C45.7244 11.5071 45.1054 11.7301 44.3034 11.7301C43.9604 11.7301 43.7244 11.7211 43.5954 11.7011V6.81208C43.8284 6.76608 44.1094 6.74408 44.4394 6.74408C45.2164 6.74408 45.8064 6.94808 46.2104 7.35508Z" fill="white"></path>
<path fill-rule="evenodd" clip-rule="evenodd" d="M53.1288 11.8897C53.5428 11.4237 53.7498 10.8297 53.7498 10.1047C53.7498 9.40067 53.5488 8.82467 53.1488 8.37867C52.7278 7.91967 52.1718 7.69067 51.4798 7.69067C50.7618 7.69067 50.1918 7.92367 49.7678 8.38867C49.3438 8.85367 49.1328 9.45267 49.1328 10.1827C49.1328 10.8807 49.3378 11.4597 49.7478 11.9187C50.1588 12.3787 50.7098 12.6077 51.4018 12.6077C52.1198 12.6077 52.6948 12.3687 53.1288 11.8897ZM52.376 9.01529C52.563 9.32629 52.657 9.69929 52.657 10.1343C52.657 10.5693 52.56 10.9453 52.366 11.2623C52.14 11.6453 51.826 11.8363 51.426 11.8363C51.018 11.8363 50.702 11.6483 50.475 11.2723C50.288 10.9613 50.194 10.5883 50.194 10.1533C50.194 9.70529 50.287 9.32629 50.475 9.01529C50.695 8.63929 51.015 8.45129 51.436 8.45129C51.843 8.45129 52.156 8.63929 52.376 9.01529Z" fill="white"></path>
<path d="M61.5382 7.78638L60.0712 12.4747H59.1164L58.5088 10.4389C58.3546 9.93064 58.2293 9.42541 58.1318 8.92415H58.1129C58.0224 9.43933 57.8971 9.94357 57.736 10.4389L57.0905 12.4747H56.1248L54.7454 7.78638H55.8165L56.3466 10.0152C56.4749 10.5423 56.5803 11.0445 56.6649 11.5199H56.6838C56.7613 11.1281 56.8896 10.6288 57.0706 10.0251L57.736 7.78737H58.5853L59.2229 9.97738C59.377 10.5115 59.5023 11.0256 59.5988 11.5209H59.6276C59.6983 11.0386 59.8047 10.5244 59.9459 9.97738L60.5148 7.78737H61.5382V7.78638Z" fill="white"></path>
<path d="M66.9413 12.4745H65.899V9.78924C65.899 8.96177 65.5847 8.54804 64.9542 8.54804C64.6449 8.54804 64.3952 8.66141 64.2013 8.88917C64.0093 9.11692 63.9119 9.38545 63.9119 9.69277V12.4735H62.8696V9.12587C62.8696 8.71413 62.8567 8.26757 62.8318 7.78422H63.7478L63.7965 8.5172H63.8253C63.9467 8.28945 64.1277 8.10148 64.3654 7.9513C64.6478 7.77626 64.9641 7.68774 65.3102 7.68774C65.7478 7.68774 66.1118 7.82897 66.4012 8.11242C66.7613 8.45952 66.9413 8.97768 66.9413 9.66592V12.4745Z" fill="white"></path>
<path d="M69.8157 12.4746H68.7744V5.63501H69.8157V12.4746Z" fill="white"></path>
<path fill-rule="evenodd" clip-rule="evenodd" d="M75.3564 11.8897C75.7704 11.4237 75.9774 10.8297 75.9774 10.1047C75.9774 9.40067 75.7764 8.82467 75.3764 8.37867C74.9544 7.91967 74.3994 7.69067 73.7064 7.69067C72.9894 7.69067 72.4194 7.92367 71.9954 8.38867C71.5714 8.85367 71.3604 9.45267 71.3604 10.1827C71.3604 10.8807 71.5654 11.4597 71.9754 11.9187C72.3854 12.3787 72.9364 12.6077 73.6294 12.6077C74.3464 12.6077 74.9224 12.3687 75.3564 11.8897ZM74.6025 9.01529C74.7895 9.32629 74.8835 9.69929 74.8835 10.1343C74.8835 10.5693 74.7875 10.9453 74.5925 11.2623C74.3665 11.6453 74.0535 11.8363 73.6535 11.8363C73.2455 11.8363 72.9295 11.6483 72.7025 11.2723C72.5155 10.9613 72.4215 10.5883 72.4215 10.1533C72.4215 9.70529 72.5145 9.32629 72.7025 9.01529C72.9215 8.63929 73.2415 8.45129 73.6635 8.45129C74.0695 8.45129 74.3835 8.63929 74.6025 9.01529Z" fill="white"></path>
<path fill-rule="evenodd" clip-rule="evenodd" d="M80.0765 12.5007H81.0175C80.9725 12.2227 80.9495 11.8477 80.9495 11.3767V9.64067C80.9495 8.34067 80.3315 7.69067 79.0995 7.69067C78.4615 7.69067 77.9205 7.82667 77.4825 8.09767L77.6955 8.78567C78.0495 8.55367 78.4595 8.43667 78.9245 8.43667C79.5775 8.43667 79.9035 8.74667 79.9035 9.36767V9.45567C79.0305 9.44867 78.3525 9.59767 77.8705 9.90167C77.3875 10.2057 77.1475 10.6447 77.1475 11.2207C77.1475 11.6017 77.2705 11.9227 77.5165 12.1807C77.7875 12.4647 78.1475 12.6077 78.5925 12.6077C79.1885 12.6077 79.6475 12.3907 79.9695 11.9577H79.9985L80.0765 12.5007ZM79.9239 10.1402V10.8672C79.9239 10.9382 79.9179 11.0002 79.9069 11.0512C79.8619 11.2782 79.7409 11.4632 79.5439 11.6092C79.3479 11.7542 79.1329 11.8272 78.9029 11.8272C78.6979 11.8272 78.5259 11.7662 78.3909 11.6432C78.2559 11.5202 78.1899 11.3362 78.1899 11.0902C78.1899 10.4372 78.7679 10.1202 79.9239 10.1402Z" fill="white"></path>
<path fill-rule="evenodd" clip-rule="evenodd" d="M86.0138 12.512H86.9438C86.9188 12.124 86.9068 11.701 86.9068 11.242V5.63501H85.8578V8.34101H85.8378C85.5858 7.91401 85.1428 7.70101 84.5098 7.70101C83.9338 7.70101 83.4498 7.92101 83.0548 8.36101C82.6468 8.83301 82.4438 9.45101 82.4438 10.214C82.4438 10.925 82.6308 11.504 83.0058 11.95C83.3808 12.396 83.8538 12.619 84.4218 12.619C85.1328 12.619 85.6388 12.331 85.9358 11.755H85.9648L86.0138 12.512ZM85.8519 9.72235V10.5084C85.8519 10.8444 85.7529 11.1324 85.5509 11.3714C85.3419 11.6304 85.0669 11.7594 84.7229 11.7594C84.3399 11.7594 84.0339 11.6044 83.8069 11.2944C83.5919 11.0034 83.4849 10.6254 83.4849 10.1594C83.4849 9.67435 83.5979 9.27735 83.8209 8.96635C84.0459 8.65535 84.3519 8.50035 84.7429 8.50035C85.0139 8.50035 85.2489 8.58635 85.4439 8.75735C85.6369 8.92835 85.7639 9.14035 85.8229 9.39235C85.8419 9.47635 85.8519 9.58635 85.8519 9.72235Z" fill="white"></path>
<path fill-rule="evenodd" clip-rule="evenodd" d="M95.2375 11.8897C95.6515 11.4237 95.8585 10.8297 95.8585 10.1047C95.8585 9.40067 95.6575 8.82467 95.2575 8.37867C94.8375 7.91967 94.2805 7.69067 93.5895 7.69067C92.8705 7.69067 92.3005 7.92367 91.8765 8.38867C91.4525 8.85367 91.2415 9.45267 91.2415 10.1827C91.2415 10.8807 91.4465 11.4597 91.8565 11.9187C92.2685 12.3787 92.8195 12.6077 93.5105 12.6077C94.2295 12.6077 94.8035 12.3687 95.2375 11.8897ZM94.4859 9.01529C94.6729 9.32629 94.7669 9.69929 94.7669 10.1343C94.7669 10.5693 94.6689 10.9453 94.4759 11.2623C94.2499 11.6453 93.9349 11.8363 93.5349 11.8363C93.1269 11.8363 92.8109 11.6483 92.5839 11.2723C92.3969 10.9613 92.3029 10.5883 92.3029 10.1533C92.3029 9.70529 92.3959 9.32629 92.5839 9.01529C92.8049 8.63929 93.1249 8.45129 93.5449 8.45129C93.9529 8.45129 94.2649 8.63929 94.4859 9.01529Z" fill="white"></path>
<path d="M101.438 12.4745H100.396V9.78924C100.396 8.96177 100.082 8.54804 99.4505 8.54804C99.1412 8.54804 98.8915 8.66141 98.6986 8.88917C98.5057 9.11692 98.4092 9.38545 98.4092 9.69277V12.4735H97.3659V9.12587C97.3659 8.71413 97.354 8.26757 97.3291 7.78422H98.2441L98.2928 8.5172H98.3217C98.444 8.28945 98.625 8.10148 98.8617 7.9513C99.1452 7.77626 99.4604 7.68774 99.8075 7.68774C100.244 7.68774 100.608 7.82897 100.898 8.11242C101.259 8.45952 101.438 8.97768 101.438 9.66592V12.4745Z" fill="white"></path>
<path d="M108.452 8.56699H107.305V10.8445C107.305 11.4234 107.508 11.7128 107.912 11.7128C108.099 11.7128 108.254 11.6969 108.377 11.664L108.404 12.4547C108.198 12.5323 107.927 12.5711 107.594 12.5711C107.182 12.5711 106.862 12.4458 106.63 12.1951C106.398 11.9445 106.282 11.5228 106.282 10.931V8.56699H105.597V7.78626H106.282V6.92696L107.304 6.61865V7.78527H108.451V8.56699H108.452Z" fill="white"></path>
<path d="M113.97 12.4746H112.927V9.80916C112.927 8.96876 112.613 8.54806 111.983 8.54806C111.5 8.54806 111.169 8.79173 110.988 9.27906C110.958 9.3815 110.94 9.50682 110.94 9.65401V12.4736H109.898V5.63501H110.94V8.46054H110.96C111.288 7.94636 111.758 7.68976 112.368 7.68976C112.8 7.68976 113.157 7.83099 113.44 8.11444C113.793 8.46751 113.97 8.99263 113.97 9.68683V12.4746Z" fill="white"></path>
<path fill-rule="evenodd" clip-rule="evenodd" d="M119.646 10.3959C119.671 10.2669 119.685 10.1089 119.685 9.92088C119.685 9.33288 119.546 8.83788 119.265 8.43788C118.917 7.93388 118.402 7.68188 117.724 7.68188C117.031 7.68188 116.482 7.93388 116.076 8.43788C115.687 8.90988 115.494 9.50188 115.494 10.2129C115.494 10.9369 115.701 11.5139 116.119 11.9439C116.535 12.3739 117.11 12.5889 117.84 12.5889C118.449 12.5889 118.975 12.4919 119.422 12.2979L119.258 11.5699C118.876 11.7189 118.452 11.7929 117.987 11.7929C117.567 11.7929 117.224 11.6829 116.958 11.4629C116.667 11.2169 116.517 10.8619 116.503 10.3959H119.646ZM118.476 8.84095C118.618 9.06695 118.687 9.33495 118.679 9.64595H116.497C116.531 9.32895 116.634 9.05795 116.808 8.83095C117.021 8.54595 117.3 8.40395 117.642 8.40395C118.017 8.40395 118.294 8.54995 118.476 8.84095Z" fill="white"></path>
</svg>